<svg width="1296" height="609" viewBox="0 0 1296 609" fill="none" xmlns="http://www.w3.org/2000/svg">
<path d="M151.333 296.666L41.466 592.666H21.066H0.666016V600.666V608.666H66.666H132.666V600.666V592.666H100.533C70.5327 592.666 68.3994 592.533 69.066 590.266C69.466 589.066 84.266 547.066 102.133 496.933L134.666 405.999L219.999 406.266L305.333 406.666L336.266 497.999C353.333 548.266 367.199 590.133 367.199 590.933C367.333 592.266 360.533 592.666 337.333 592.666H307.333V600.666V608.666H447.999H588.666V600.666V592.666H568.933H549.066L519.066 510.933C502.666 466.133 453.733 332.933 410.533 215.066L331.999 0.665984H296.533H261.199L151.333 296.666ZM260.666 273.599C280.666 334.399 297.333 384.799 297.599 385.599C298.133 386.933 282.266 387.333 220.666 387.333H143.066L143.733 384.266C145.466 377.733 222.666 163.333 223.466 163.333C223.866 163.333 240.533 212.933 260.666 273.599Z" fill="white" fill-opacity="0.35"/>
<path d="M615.332 13.9993V21.9993H638.665H661.999V307.333V592.666H638.665H615.332V600.666V608.666H673.999H732.665V600.666V592.666H708.665H684.665V321.999C684.665 93.466 684.932 51.3327 686.532 51.3327C687.732 51.3327 689.732 56.266 692.265 65.5993C694.399 73.5993 728.532 198.933 768.132 344.266L839.999 608.666H893.599H947.199L948.532 603.599C949.199 600.933 978.132 477.199 1012.67 328.666C1047.2 180.133 1075.73 57.5993 1076.13 56.266C1076.53 55.066 1077.73 53.9993 1078.8 53.9993C1080.4 53.9993 1080.67 89.9993 1080.4 322.933L1080 591.999L1056.4 592.399L1032.67 592.666V600.666V608.666H1164H1295.33V600.666V592.666H1272H1248.67V307.333V21.9993H1272H1295.33V13.9993V5.99932H1180.4H1065.33L1014 226.533C985.732 347.866 962.399 446.799 961.999 446.399C961.599 446.133 935.865 346.933 904.665 226.266L847.865 6.66598L731.599 6.26598L615.332 5.99932V13.9993Z" fill="white" fill-opacity="0.35"/>
</svg>
